<svg width="13" height="10" viewBox="0 0 13 10" fill="none" xmlns="http://www.w3.org/2000/svg">
<g id="Group 9">
<path id="Vector" d="M7.62083 6.9264H9.23666L8.8575 9.2214L8.54833 8.41391C7.46916 9.51536 4.56416 10.5389 3.59 6.91224C4.69833 9.65349 7.43708 8.3537 8.16041 7.49661L7.62083 6.9264ZM4.96375 5.7364C4.84206 5.74054 4.72121 5.71088 4.61041 5.64966C4.49961 5.58845 4.40178 5.4973 4.32441 5.38319C4.24703 5.26908 4.19215 5.13501 4.16394 4.99122C4.13574 4.84742 4.13496 4.6977 4.16166 4.55349L4.27541 3.78495C4.32902 3.46089 4.47102 3.16824 4.67847 2.95425C4.88592 2.74025 5.14672 2.61742 5.41875 2.60557C5.5403 2.60086 5.66112 2.63002 5.77195 2.69082C5.88277 2.75161 5.98066 2.84242 6.0581 2.95629C6.13553 3.07015 6.19046 3.20404 6.21867 3.34768C6.24688 3.49132 6.24762 3.6409 6.22083 3.78495L6.10416 4.55349C6.05125 4.87762 5.90994 5.17065 5.70302 5.38528C5.49611 5.5999 5.23567 5.7236 4.96375 5.7364ZM7.85416 5.7364C7.73231 5.74125 7.61116 5.71205 7.50007 5.65106C7.38897 5.59007 7.29089 5.49891 7.2134 5.38462C7.1359 5.27033 7.08105 5.13595 7.05308 4.99185C7.02512 4.84775 7.02477 4.69777 7.05208 4.55349L7.16291 3.78495C7.2176 3.46088 7.3603 3.1685 7.56814 2.95465C7.77598 2.7408 8.03693 2.61788 8.30916 2.60557C8.43071 2.60086 8.55153 2.63002 8.66236 2.69082C8.77319 2.75161 8.87108 2.84242 8.94851 2.95629C9.02595 3.07015 9.08088 3.20404 9.10909 3.34768C9.1373 3.49132 9.13804 3.6409 9.11125 3.78495L8.9975 4.55349C8.94399 4.87791 8.8021 5.17102 8.5947 5.38561C8.38729 5.60019 8.12644 5.72376 7.85416 5.7364Z" stroke="white" stroke-width="1.04167" stroke-linecap="round" stroke-linejoin="round"/>
<path id="Vector_2" d="M1.55289 3.16265C1.6503 3.05433 1.66842 2.88583 1.59336 2.7863C1.5183 2.68676 1.37848 2.69388 1.28106 2.80219C1.18365 2.91051 1.16552 3.07901 1.24059 3.17855C1.31565 3.27809 1.45547 3.27097 1.55289 3.16265Z" fill="white"/>
<path id="Vector_3" d="M1.455 2.60557L1 5.73641M11.9725 3.78495C11.9993 3.6409 11.9986 3.49132 11.9703 3.34768C11.9421 3.20404 11.8872 3.07015 11.8098 2.95629C11.7323 2.84242 11.6344 2.75161 11.5236 2.69082C11.4128 2.63002 11.292 2.60086 11.1704 2.60557C10.8984 2.61742 10.6376 2.74025 10.4301 2.95425C10.2227 3.16824 10.0807 3.46089 10.0271 3.78495L9.91333 4.55349C9.88663 4.6977 9.88741 4.84742 9.91561 4.99122C9.94382 5.13501 9.9987 5.26908 10.0761 5.38319C10.1535 5.49731 10.2513 5.58845 10.3621 5.64966C10.4729 5.71088 10.5937 5.74055 10.7154 5.73641C10.9881 5.72392 11.2493 5.60048 11.4572 5.38594C11.6651 5.1714 11.8076 4.8782 11.8617 4.55349M11.6896 5.73641L12.375 1.00828M2.38542 6.66432L3.08542 1.83703C3.11922 1.60738 3.21771 1.39913 3.36403 1.24794C3.51035 1.09676 3.6954 1.01204 3.8875 1.00828C4.00951 0.986356 4.13413 1.0082 4.24606 1.07112C4.35798 1.13404 4.45233 1.2353 4.5175 1.36245M2.44083 2.60557H3.80292" stroke="white" stroke-width="1.04167" stroke-linecap="round" stroke-linejoin="round"/>
</g>
</svg>
