<svg width="8" height="9" viewBox="0 0 8 9" fill="none" xmlns="http://www.w3.org/2000/svg">
<path id="Vector" d="M3.96825 1.8H4.7619L6.9832 1.95971L7.30556 0.9H4.7619H4.6627H3.96825L1.62606 0.879708L1.92368 1.95971L3.96825 1.8ZM2.38095 7.2C1.94444 7.2 1.59127 7.605 1.59127 8.1C1.59127 8.595 1.94444 9 2.38095 9C2.81746 9 3.1746 8.595 3.1746 8.1C3.1746 7.605 2.81746 7.2 2.38095 7.2ZM6.34921 7.2C5.9127 7.2 5.55952 7.605 5.55952 8.1C5.55952 8.595 5.9127 9 6.34921 9C6.78571 9 7.14286 8.595 7.14286 8.1C7.14286 7.605 6.78571 7.2 6.34921 7.2ZM2.44841 5.7375L2.46032 5.6835L2.81746 4.95H5.77381C6.07143 4.95 6.33333 4.7655 6.46825 4.4865L8 1.332L7.30952 0.9H7.30556L6.86905 1.8L5.77381 4.05H2.9881L2.93651 3.9285L2.04762 1.8L1.67063 0.9L1.29762 0H0V0.9H0.793651L2.22222 4.3155L1.68651 5.418C1.62302 5.544 1.5873 5.6925 1.5873 5.85C1.5873 6.345 1.94444 6.75 2.38095 6.75H7.14286V5.85H2.54762C2.49603 5.85 2.44841 5.8005 2.44841 5.7375Z" fill="white"/>
</svg>
