<svg width="20" height="20" viewBox="0 0 11 9" fill="none" xmlns="http://www.w3.org/2000/svg">
<path id="Vector" d="M7.26271 0.0183745L0.907839 0.0612501C0.667065 0.0628746 0.436967 0.185091 0.268163 0.401013C0.0993592 0.616934 0.0056775 0.908874 0.00772676 1.21261L0.0424972 6.36616L0.950336 6.36004C0.956711 7.30486 1.57018 8.07379 2.32368 8.0687C3.07719 8.06362 3.68023 7.28648 3.67385 6.34166L6.17041 6.32482C6.17678 7.26964 6.79025 8.03857 7.54376 8.03348C8.29726 8.0284 8.9003 7.25126 8.89392 6.30644L10.0287 6.29879L10.0094 3.4357L7.26271 0.0183745ZM0.931019 3.49695L0.915566 1.20648L2.73124 1.19423L2.7467 3.4847L0.931019 3.49695ZM2.31789 7.20978C1.94114 7.21232 1.63442 6.83072 1.63122 6.35545C1.62801 5.88017 1.92955 5.49447 2.3063 5.49193C2.68305 5.48938 2.98977 5.87099 2.99297 6.34626C2.99618 6.82153 2.69464 7.20724 2.31789 7.20978ZM5.47021 3.46633L3.65454 3.47858L3.63908 1.18811L5.45476 1.17586L5.47021 3.46633ZM7.53796 7.17456C7.16121 7.1771 6.85449 6.7955 6.85129 6.32023C6.84808 5.84495 7.14962 5.45925 7.52637 5.45671C7.90312 5.45416 8.20984 5.83577 8.21305 6.31104C8.21625 6.78631 7.91472 7.17202 7.53796 7.17456ZM6.37805 3.4602L6.3626 1.16973L6.81652 1.16667L8.64765 3.44489L6.37805 3.4602Z" fill="white"/>
</svg>
